<?xml version="1.0" encoding="UTF-8" standalone="no"?>
<!DOCTYPE svg PUBLIC "-//W3C//DTD SVG 1.1//EN" "http://www.w3.org/Graphics/SVG/1.1/DTD/svg11.dtd">
<!-- Created with Vectornator (http://vectornator.io/) -->
<svg height="100%" stroke-miterlimit="10" style="fill-rule:nonzero;clip-rule:evenodd;stroke-linecap:round;stroke-linejoin:round;" version="1.1" viewBox="0 0 1024 1024" width="100%" xml:space="preserve" xmlns="http://www.w3.org/2000/svg" xmlns:vectornator="http://vectornator.io" xmlns:xlink="http://www.w3.org/1999/xlink">
<defs/>
<g id="Door" vectornator:layerName="Door">
<path d="M326.003 99.5182L336.38 924.482" fill="none" opacity="1" stroke="#000000" stroke-linecap="round" stroke-linejoin="round" stroke-width="60"/>
<path d="M318.901 130.066L105.384 226.092L113.63 773.206L321.361 893.934C321.361 893.934 317.312 131.364 318.901 130.066Z" fill="none" opacity="1" stroke="#000000" stroke-linecap="round" stroke-linejoin="round" stroke-width="40"/>
<path d="M220.232 504.383" fill="none" opacity="1" stroke="#000000" stroke-linecap="butt" stroke-linejoin="round" stroke-width="20"/>
<path d="M157.879 512C157.879 507.932 161.176 504.634 165.244 504.634C169.312 504.634 172.61 507.932 172.61 512C172.61 516.068 169.312 519.366 165.244 519.366C161.176 519.366 157.879 516.068 157.879 512Z" fill="#3395ff" fill-rule="nonzero" opacity="1" stroke="#000000" stroke-linecap="butt" stroke-linejoin="round" stroke-width="30"/>
</g>
<g id="Person" vectornator:layerName="Person">
<path d="M538.721 321.98C542.313 283.551 576.377 255.311 614.806 258.902C653.235 262.494 681.475 296.559 677.884 334.987C674.292 373.416 640.228 401.657 601.799 398.065C563.37 394.473 535.129 360.409 538.721 321.98Z" fill="#000000" fill-rule="nonzero" opacity="1" stroke="#000000" stroke-linecap="butt" stroke-linejoin="round" stroke-width="0.1"/>
<path d="M619.705 439.474L502.54 501.202L415.639 432.772" fill="none" opacity="1" stroke="#000000" stroke-linecap="round" stroke-linejoin="round" stroke-width="50"/>
<path d="M638.078 401.432L729.784 573.168" fill="none" opacity="1" stroke="#000000" stroke-linecap="butt" stroke-linejoin="round" stroke-width="115"/>
<path d="M676.477 410.115L784.143 348.263L881.103 411.525" fill="none" opacity="1" stroke="#000000" stroke-linecap="round" stroke-linejoin="round" stroke-width="50"/>
<path d="M607.707 834.444L610.558 677.671L677.079 574.225" fill="none" opacity="1" stroke="#000000" stroke-linecap="round" stroke-linejoin="round" stroke-width="50"/>
<path d="M967.486 726.471L834.659 686.058L750.597 543.797" fill="none" opacity="1" stroke="#000000" stroke-linecap="round" stroke-linejoin="round" stroke-width="50"/>
</g>
</svg>
